<svg width="789" height="879" viewBox="0 0 789 879" fill="none" xmlns="http://www.w3.org/2000/svg">
<g opacity="0.1111">
<path opacity="0.1111" d="M85.716 785.582L85.7155 785.582C52.0717 756.83 28.1269 723.599 14.7604 686.99C8.97396 671.128 4.88257 654.065 2.68701 636.101L2.19071 636.162L2.68697 636.101C-1.60464 601.169 0.888182 562.927 10.1796 519.167C16.5787 489.271 26.7754 443.486 42.1698 391.905L42.1704 391.903C75.6826 277.882 118.33 187.991 168.729 124.543C118.33 188.026 75.7402 277.941 42.2113 391.82C26.9061 443.437 16.6029 489.152 10.3014 519.059C0.993183 562.798 -1.51392 601.055 2.79446 636.023C4.99864 653.957 9.00686 671.095 14.8213 686.934C39.8847 755.507 104.519 813.893 192.113 847.229L192.291 846.762L192.113 847.229C234.259 863.247 278.807 873.057 324.455 876.361C364.096 879.264 403.04 877.061 440.183 870.053L440.185 870.053C496.653 859.24 551.419 836.212 598.577 803.272C610.334 795.09 621.641 786.313 632.47 776.997C621.627 786.36 610.358 795.129 598.705 803.252C551.562 836.111 496.828 859.184 440.296 870.071C413.729 875.164 386.361 877.662 358.491 877.662C347.202 877.662 335.814 877.262 324.426 876.463C278.675 873.167 234.223 863.277 192.068 847.294C151.816 832.012 114.967 810.64 85.716 785.582ZM322.575 11.4433C272.332 26.9046 225.844 58.786 183.657 106.693C208.507 78.4664 234.874 55.7266 262.153 38.8873C281.507 26.9934 301.705 17.8266 322.575 11.4433ZM395.791 0.561812C394.67 0.561812 393.555 0.567032 392.444 0.578668C453.646 -0.211277 522.24 20.2566 596.647 61.6986L596.648 61.699C646.659 89.4495 688.898 132.28 722.159 189.015L722.16 189.016C764.513 260.936 787.991 348.249 788.291 434.864C788.491 482.517 780.664 530.574 765.375 576.679C780.371 531.201 788.291 483.214 788.091 434.76C787.79 348.175 764.268 260.888 721.922 189.008C688.684 132.444 646.423 89.5749 596.435 61.8254C523.587 21.0986 456.102 0.561812 395.791 0.561812Z" fill="url(#paint0_linear_1_801)" stroke="#DFECEF"/>
</g>
<defs>
<linearGradient id="paint0_linear_1_801" x1="-18.4568" y1="497.547" x2="785.495" y2="378.374" gradientUnits="userSpaceOnUse">
<stop stop-color="#FFF154"/>
<stop offset="0.085415" stop-color="#CFC383"/>
<stop offset="0.1781" stop-color="#A298AF"/>
<stop offset="0.2673" stop-color="#7E76D2"/>
<stop offset="0.3507" stop-color="#655EEB"/>
<stop offset="0.4261" stop-color="#554FFA"/>
<stop offset="0.4866" stop-color="#504AFF"/>
<stop offset="0.7138" stop-color="#8C3EA5"/>
<stop offset="1" stop-color="#DB2E2E"/>
</linearGradient>
</defs>
</svg>
