<svg width="163" height="24" viewBox="0 0 163 24" fill="none" xmlns="http://www.w3.org/2000/svg">
<path opacity="0.5" d="M21.4436 4.0842C21.2247 3.50021 20.8872 2.97097 20.4403 2.5421C20.0116 2.09498 19.4826 1.75736 18.8988 1.53837C18.4245 1.35587 17.7131 1.13687 16.4088 1.073C14.995 1.01825 14.5755 1 10.9909 1C7.41542 1 6.98673 1.00912 5.57297 1.08212C4.26866 1.13687 3.55721 1.35587 3.08292 1.53837C2.49917 1.75736 1.97015 2.09498 1.54146 2.5421C1.09453 2.97097 0.757048 3.50021 0.538143 4.0842C0.355721 4.55869 0.136816 5.27043 0.0729685 6.57528C0.0182421 7.98963 0 8.4185 0 11.9954C0 15.5815 0.0182421 16.0012 0.0820896 17.4156C0.145937 18.7204 0.355721 19.4322 0.547264 19.9067C0.766169 20.4907 1.10365 21.0199 1.55058 21.4488C1.97927 21.8959 2.50829 22.2335 3.09204 22.4525C3.56633 22.635 4.27778 22.854 5.58209 22.9179C6.99585 22.9817 7.41542 23 11 23C14.5846 23 15.0041 22.9909 16.4179 22.9179C17.7222 22.854 18.4337 22.6441 18.908 22.4525C20.0755 22.0054 21.0058 21.0747 21.4527 19.9067C21.6352 19.4322 21.8541 18.7204 21.9179 17.4156C21.9818 16.0012 22 15.5724 22 11.9954C22 8.40937 21.9909 7.98963 21.9179 6.57528C21.8449 5.27043 21.626 4.55869 21.4436 4.0842ZM10.9909 18.8847C7.1874 18.8847 4.10448 15.8005 4.10448 11.9954C4.10448 8.19038 7.1874 5.10618 10.9909 5.10618C14.7944 5.10618 17.8773 8.19038 17.8773 11.9954C17.8773 15.8005 14.7944 18.8847 10.9909 18.8847ZM18.1509 6.44753C17.2662 6.44753 16.5456 5.72667 16.5456 4.84156C16.5456 3.95645 17.2662 3.23559 18.1509 3.23559C19.0357 3.23559 19.7562 3.95645 19.7562 4.84156C19.7562 5.72667 19.0357 6.44753 18.1509 6.44753Z" fill="#DDE8F0"/>
<path opacity="0.5" d="M56.5 8.25V5.25C56.5 4.42031 57.1703 3.75 58 3.75H59.5V0H56.5C54.0156 0 52 2.01562 52 4.5V8.25H49V12H52V24H56.5V12H59.5L61 8.25H56.5Z" fill="#DDE8F0"/>
<path opacity="0.5" d="M110 5.11647C109.191 5.47545 108.321 5.71807 107.408 5.82719C108.34 5.26856 109.055 4.38402 109.392 3.33009C108.52 3.84728 107.554 4.22292 106.526 4.42539C105.703 3.54817 104.53 3 103.231 3C100.739 3 98.7178 5.02087 98.7178 7.51346C98.7178 7.86722 98.7578 8.21171 98.8347 8.54205C95.0835 8.35382 91.7577 6.5569 89.5315 3.8262C89.143 4.49282 88.9204 5.26816 88.9204 6.09532C88.9204 7.66121 89.7173 9.04274 90.9284 9.85212C90.1885 9.8287 89.4926 9.62567 88.884 9.28761C88.8837 9.30644 88.8837 9.32535 88.8837 9.34434C88.8837 11.5312 90.4395 13.3555 92.5043 13.7701C92.1255 13.8733 91.7268 13.9284 91.3151 13.9284C91.0243 13.9284 90.7415 13.9001 90.466 13.8474C91.0403 15.6406 92.7072 16.9456 94.6822 16.982C93.1375 18.1925 91.1913 18.9141 89.0767 18.9141C88.7124 18.9141 88.3531 18.8928 88 18.8511C89.9975 20.1317 92.37 20.8789 94.9189 20.8789C103.221 20.8789 107.761 14.0013 107.761 8.03685C107.761 7.84114 107.756 7.64648 107.748 7.45295C108.63 6.81658 109.395 6.02161 110 5.11647Z" fill="#DDE8F0"/>
<path opacity="0.5" d="M161.895 4.7225C161.19 3.468 160.424 3.23725 158.866 3.1495C157.309 3.04388 153.395 3 150.003 3C146.605 3 142.689 3.04388 141.134 3.14788C139.579 3.23725 138.812 3.46637 138.1 4.7225C137.374 5.97537 137 8.13338 137 11.9326C137 11.9359 137 11.9375 137 11.9375C137 11.9408 137 11.9424 137 11.9424V11.9456C137 15.7286 137.374 17.9029 138.1 19.1427C138.812 20.3972 139.577 20.6248 141.132 20.7304C142.689 20.8214 146.605 20.875 150.003 20.875C153.395 20.875 157.309 20.8214 158.868 20.732C160.426 20.6264 161.191 20.3989 161.897 19.1444C162.63 17.9045 163 15.7302 163 11.9472C163 11.9472 163 11.9424 163 11.9391V11.9342C163 8.13338 162.63 5.97537 161.895 4.7225ZM146.75 16.8125V7.0625L154.875 11.9375L146.75 16.8125Z" fill="#DDE8F0"/>
</svg>
