<svg width="27" height="33" viewBox="0 0 27 33" fill="none" xmlns="http://www.w3.org/2000/svg">
<path fill-rule="evenodd" clip-rule="evenodd" d="M9.55895 1.2394C9.50823 1.23852 9.45928 1.25803 9.42308 1.29355L5.94034 4.71058C5.89312 4.75691 5.8735 4.82453 5.88861 4.88894L7.23003 10.6076C7.30166 10.913 7.11218 11.2186 6.80681 11.2902C6.50144 11.3619 6.19582 11.1724 6.12419 10.867L4.78277 5.14834C4.67701 4.69748 4.81429 4.22412 5.14485 3.89979L8.62759 0.482767C8.88104 0.234098 9.22368 0.0975421 9.5787 0.103716L17.5005 0.241487C18.0036 0.250237 18.4584 0.543171 18.6744 0.99764L22.2621 8.54677L21.3347 9.68022C24.6146 13.0726 26.4088 16.5589 26.1751 20.6892C25.7884 27.5221 20.723 31.5709 15.0755 32.1828C9.42784 32.7947 3.15461 29.9855 0.248022 23.1511C0.125268 22.8625 0.259744 22.529 0.548384 22.4062C0.837023 22.2835 1.17052 22.4179 1.29328 22.7066C3.99025 29.0481 9.76719 31.6154 14.9531 31.0535C20.1392 30.4917 24.6906 26.8167 25.041 20.625C25.2581 16.7898 23.5532 13.499 20.1708 10.1166L15.0595 5.00527C14.8377 4.78348 14.8377 4.42389 15.0595 4.2021C15.2813 3.98031 15.6409 3.98031 15.8627 4.2021L20.5303 8.86971L20.9273 8.38442L17.6485 1.48519C17.6176 1.42027 17.5527 1.37842 17.4808 1.37717L9.55895 1.2394Z" fill="#5C6D7D"/>
</svg>
